<?xml version="1.0" standalone="no"?>
<!DOCTYPE svg PUBLIC "-//W3C//DTD SVG 20010904//EN"
 "http://www.w3.org/TR/2001/REC-SVG-20010904/DTD/svg10.dtd">
<svg version="1.0" xmlns="http://www.w3.org/2000/svg"
 width="500.000000pt" height="500.000000pt" viewBox="0 0 500.000000 500.000000"
 preserveAspectRatio="xMidYMid meet">
<metadata>
Created by potrace 1.11, written by Peter Selinger 2001-2013
</metadata>
<g transform="translate(0.000000,500.000000) scale(0.100000,-0.100000)"
fill="#000000" stroke="none">
<path d="M2390 4722 c-72 -9 -157 -51 -305 -147 -88 -57 -234 -152 -325 -210
-91 -59 -219 -142 -285 -185 -66 -43 -292 -190 -503 -327 -210 -136 -435 -283
-500 -325 -64 -43 -124 -81 -132 -86 -32 -16 -216 -141 -238 -162 -122 -116
-117 -338 11 -445 23 -19 184 -131 357 -249 173 -118 335 -229 360 -246 25
-18 106 -73 180 -124 74 -50 376 -256 670 -456 294 -201 554 -375 576 -387
122 -67 313 -65 446 3 14 7 91 56 170 107 137 90 183 119 418 272 58 37 148
96 200 130 52 34 181 117 285 185 105 68 242 157 305 198 63 41 165 107 225
147 61 39 214 138 340 220 241 156 283 191 318 265 32 69 30 188 -6 257 -36
70 -62 94 -197 181 -63 41 -158 103 -210 137 -52 34 -232 151 -400 260 -168
109 -350 227 -405 263 -55 36 -122 80 -150 97 -27 18 -221 144 -430 280 -209
136 -405 263 -436 281 -99 59 -220 82 -339 66z m295 -499 c239 -154 591 -383
714 -464 57 -38 108 -69 113 -69 4 0 8 -4 8 -9 0 -5 6 -11 13 -13 7 -2 120
-73 250 -158 277 -182 387 -253 594 -386 l153 -98 -128 -83 c-70 -46 -134 -88
-142 -93 -24 -17 -926 -603 -1030 -670 -52 -34 -187 -121 -300 -195 -421 -274
-422 -275 -455 -275 -24 0 -80 33 -236 139 -216 148 -1117 763 -1527 1043
l-244 167 196 128 c108 70 285 186 393 256 109 71 233 152 277 180 87 57 90
59 208 135 46 30 129 84 185 120 57 37 153 100 215 140 62 41 199 129 303 198
175 115 193 124 230 121 30 -3 81 -30 210 -114z"/>
<path d="M2390 3663 c-43 -7 -124 -35 -158 -55 -34 -19 -148 -91 -340 -216
-56 -37 -257 -168 -447 -291 l-345 -223 52 -37 c29 -20 108 -74 174 -119 l121
-83 169 110 c93 61 205 133 249 161 44 27 190 122 325 210 197 128 252 160
280 160 36 0 32 3 851 -529 105 -68 196 -124 203 -124 18 0 346 217 343 227
-2 4 -104 74 -227 154 -124 80 -279 180 -345 223 -66 43 -163 106 -215 139
-52 34 -153 100 -225 146 -137 90 -191 119 -265 138 -46 13 -154 18 -200 9z"/>
<path d="M254 2324 c-144 -92 -177 -122 -212 -194 -22 -45 -27 -68 -27 -130 1
-130 44 -196 190 -296 39 -26 219 -149 400 -272 182 -124 371 -253 420 -286
50 -34 92 -63 95 -66 3 -3 12 -9 21 -15 10 -5 70 -47 135 -91 66 -45 175 -120
244 -167 69 -47 204 -139 300 -204 96 -65 177 -120 180 -123 14 -15 221 -150
257 -169 94 -47 231 -62 333 -36 80 21 131 49 420 238 157 102 371 241 475
308 105 68 260 169 345 224 85 55 202 131 260 169 753 486 809 524 841 569 81
111 72 283 -19 381 -28 29 -228 166 -243 166 -5 0 -9 4 -9 10 0 5 -11 12 -25
16 -19 5 -41 -5 -92 -38 -38 -24 -116 -75 -175 -113 l-108 -69 128 -83 c70
-45 128 -86 129 -90 2 -5 -59 -48 -134 -97 -76 -48 -237 -152 -358 -231 -121
-79 -287 -187 -370 -240 -82 -53 -375 -243 -650 -421 -519 -337 -527 -341
-583 -311 -12 6 -75 48 -140 93 -64 44 -166 114 -227 155 -60 42 -254 174
-430 294 -176 120 -393 269 -482 329 -90 61 -278 190 -419 286 l-256 174 28
21 c16 11 69 46 119 78 49 32 93 61 96 65 4 4 -71 60 -166 124 l-173 117 -118
-75z"/>
</g>
</svg>
